<svg xmlns="http://www.w3.org/2000/svg" version="1.1" x="0" y="0" viewBox="0 0 200.3 72" enable-background="new 0 0 200.3 72" xml:space="preserve"><path d="M22.1 11.9h2.3V21h-4.2c-4.9 0-7.4 2.9-7.4 8.7v39.4H2.3V12h10.5v7c0.6-2 1.7-3.7 3.3-5.1C17.8 12.5 19.7 11.9 22.1 11.9zM52.5 20.5h-7.8v36.2c0 1.4 0.2 2.3 0.6 2.7 0.4 0.4 1.3 0.6 2.7 0.6h4.4v9H45c-7.3 0-11-3.4-11-10.3V20.5h-5.4V12H34V2.3h10.6V12h7.8V20.5zM78.7 57.6v-9.5c0-1.4-0.2-2.3-0.7-2.7 -0.5-0.4-1.4-0.6-2.8-0.6h-6c-7.3 0-10.9-3.4-10.9-10.3V22.4c0-6.9 3.6-10.4 10.9-10.4h8.5c7.3 0 11 3.5 11 10.4v5.5H78.4v-4.4c0-1.4-0.2-2.3-0.7-2.7 -0.5-0.4-1.4-0.6-2.8-0.6h-2.8c-1.4 0-2.3 0.2-2.8 0.6 -0.5 0.4-0.7 1.3-0.7 2.7v9.8c0 1.4 0.2 2.3 0.7 2.7 0.5 0.4 1.4 0.6 2.8 0.6h6.1c7.2 0 10.8 3.5 10.8 10.4v11.7c0 6.9-3.6 10.3-10.9 10.3h-8.7c-7.3 0-10.9-3.4-10.9-10.3v-5.6h10.3v4.4c0 1.4 0.2 2.3 0.7 2.7C70 60.8 71 61 72.4 61h2.8c1.4 0 2.3-0.2 2.8-0.6C78.4 59.9 78.7 59 78.7 57.6zM118.4 12h10.5v57.1h-10.5v-4.6c-1 3-3.4 4.6-7.3 4.6h-4.2c-7 0-10.5-3.4-10.5-10.3V22.4c0-6.9 3.5-10.4 10.5-10.4h4.2c3.8 0 6.2 1.5 7.3 4.6V12zM110.4 60.5h4.1c1.4 0 2.4-0.3 3-0.9 0.6-0.6 0.9-1.7 0.9-3.2V24.6c0-1.5-0.3-2.5-0.9-3.2 -0.6-0.6-1.6-0.9-3-0.9h-4.1c-1.4 0-2.3 0.2-2.8 0.6 -0.5 0.4-0.7 1.3-0.7 2.7v33.2c0 1.4 0.2 2.3 0.7 2.7C108.1 60.3 109 60.5 110.4 60.5zM147.7 12h12.5c7.3 0 10.9 3.5 10.9 10.4v36.4c0 6.9-3.6 10.3-10.9 10.3h-12.5c-7.2 0-10.8-3.4-10.8-10.3V22.4C136.9 15.4 140.5 12 147.7 12zM160.7 57.2V23.8c0-1.4-0.2-2.3-0.7-2.8 -0.5-0.5-1.4-0.7-2.8-0.7h-6.4c-1.4 0-2.3 0.2-2.7 0.7 -0.4 0.5-0.6 1.4-0.6 2.8v33.5c0 1.4 0.2 2.3 0.6 2.8 0.4 0.5 1.3 0.7 2.7 0.7h6.4c1.4 0 2.3-0.2 2.8-0.7C160.5 59.6 160.7 58.7 160.7 57.2z"/><path d="M178.9 14.1V12h7.7v2.1H184v8.3h-2.5v-8.3H178.9zM197.7 12v10.4h-2.3v-6.7l-1.6 4.9h-2.2l-1.6-4.9v6.7h-2.3V12h3l2 5.9 2-5.9H197.7z"/></svg>
